<mxfile host="app.diagrams.net" modified="2021-04-21T21:07:23.729Z" agent="5.0 (X11; Linux x86_64) AppleWebKit/537.36 (KHTML, like Gecko) Chrome/89.0.4389.114 Safari/537.36" etag="Dbzz7vC6JV3ZlpevZS-1" version="14.6.3" type="github">
  <diagram id="C5RBs43oDa-KdzZeNtuy" name="Page-1">
    <mxGraphModel dx="1277" dy="762" grid="1" gridSize="10" guides="1" tooltips="1" connect="1" arrows="1" fold="1" page="1" pageScale="1" pageWidth="827" pageHeight="1169" math="0" shadow="0">
      <root>
        <mxCell id="WIyWlLk6GJQsqaUBKTNV-0" />
        <mxCell id="WIyWlLk6GJQsqaUBKTNV-1" parent="WIyWlLk6GJQsqaUBKTNV-0" />
        <mxCell id="WIyWlLk6GJQsqaUBKTNV-2" value="" style="rounded=0;html=1;jettySize=auto;orthogonalLoop=1;fontSize=11;endArrow=block;endFill=0;endSize=8;strokeWidth=1;shadow=0;labelBackgroundColor=none;edgeStyle=orthogonalEdgeStyle;" parent="WIyWlLk6GJQsqaUBKTNV-1" source="WIyWlLk6GJQsqaUBKTNV-3" edge="1">
          <mxGeometry relative="1" as="geometry">
            <mxPoint x="320" y="120" as="targetPoint" />
          </mxGeometry>
        </mxCell>
        <mxCell id="WIyWlLk6GJQsqaUBKTNV-3" value="start" style="rounded=1;whiteSpace=wrap;html=1;fontSize=12;glass=0;strokeWidth=1;shadow=0;" parent="WIyWlLk6GJQsqaUBKTNV-1" vertex="1">
          <mxGeometry x="260" y="40" width="120" height="40" as="geometry" />
        </mxCell>
        <mxCell id="nSL4FQGUEAR4KbrCE8Lp-5" value="" style="edgeStyle=orthogonalEdgeStyle;rounded=0;orthogonalLoop=1;jettySize=auto;html=1;" edge="1" parent="WIyWlLk6GJQsqaUBKTNV-1" source="nSL4FQGUEAR4KbrCE8Lp-2" target="nSL4FQGUEAR4KbrCE8Lp-4">
          <mxGeometry relative="1" as="geometry" />
        </mxCell>
        <mxCell id="nSL4FQGUEAR4KbrCE8Lp-2" value="print logo&lt;br&gt;print welcome" style="rounded=1;whiteSpace=wrap;html=1;" vertex="1" parent="WIyWlLk6GJQsqaUBKTNV-1">
          <mxGeometry x="260" y="120" width="120" height="40" as="geometry" />
        </mxCell>
        <mxCell id="nSL4FQGUEAR4KbrCE8Lp-7" value="" style="edgeStyle=orthogonalEdgeStyle;rounded=0;orthogonalLoop=1;jettySize=auto;html=1;entryX=0.5;entryY=0;entryDx=0;entryDy=0;entryPerimeter=0;" edge="1" parent="WIyWlLk6GJQsqaUBKTNV-1" source="nSL4FQGUEAR4KbrCE8Lp-4" target="nSL4FQGUEAR4KbrCE8Lp-17">
          <mxGeometry relative="1" as="geometry">
            <mxPoint x="320" y="280" as="targetPoint" />
          </mxGeometry>
        </mxCell>
        <mxCell id="nSL4FQGUEAR4KbrCE8Lp-4" value="ask for name&lt;br&gt;ask for bid" style="whiteSpace=wrap;html=1;rounded=1;" vertex="1" parent="WIyWlLk6GJQsqaUBKTNV-1">
          <mxGeometry x="260" y="200" width="120" height="50" as="geometry" />
        </mxCell>
        <mxCell id="nSL4FQGUEAR4KbrCE8Lp-6" value="other bidders?" style="rhombus;whiteSpace=wrap;html=1;rounded=1;" vertex="1" parent="WIyWlLk6GJQsqaUBKTNV-1">
          <mxGeometry x="270" y="380" width="100" height="80" as="geometry" />
        </mxCell>
        <mxCell id="nSL4FQGUEAR4KbrCE8Lp-11" value="Yes" style="rounded=0;jettySize=auto;orthogonalLoop=1;fontSize=11;endArrow=block;endFill=0;endSize=8;strokeWidth=1;shadow=0;labelBackgroundColor=none;edgeStyle=orthogonalEdgeStyle;labelPosition=center;verticalLabelPosition=middle;align=center;verticalAlign=middle;fontStyle=0;html=1;labelBorderColor=none;spacing=3;horizontal=1;exitX=0;exitY=0.5;exitDx=0;exitDy=0;entryX=0.5;entryY=1;entryDx=0;entryDy=0;" edge="1" parent="WIyWlLk6GJQsqaUBKTNV-1" source="nSL4FQGUEAR4KbrCE8Lp-6" target="nSL4FQGUEAR4KbrCE8Lp-19">
          <mxGeometry y="20" relative="1" as="geometry">
            <mxPoint as="offset" />
            <mxPoint x="180" y="380" as="sourcePoint" />
            <mxPoint x="180" y="420" as="targetPoint" />
          </mxGeometry>
        </mxCell>
        <mxCell id="nSL4FQGUEAR4KbrCE8Lp-13" value="print a winner &lt;br&gt;with a max bid" style="rounded=1;whiteSpace=wrap;html=1;fontColor=#000000;" vertex="1" parent="WIyWlLk6GJQsqaUBKTNV-1">
          <mxGeometry x="260" y="500" width="120" height="40" as="geometry" />
        </mxCell>
        <mxCell id="nSL4FQGUEAR4KbrCE8Lp-16" value="No" style="edgeStyle=orthogonalEdgeStyle;rounded=0;html=1;jettySize=auto;orthogonalLoop=1;fontSize=11;endArrow=block;endFill=0;endSize=8;strokeWidth=1;shadow=0;labelBackgroundColor=none;exitX=0.5;exitY=1;exitDx=0;exitDy=0;entryX=0.5;entryY=0;entryDx=0;entryDy=0;" edge="1" parent="WIyWlLk6GJQsqaUBKTNV-1" source="nSL4FQGUEAR4KbrCE8Lp-6" target="nSL4FQGUEAR4KbrCE8Lp-13">
          <mxGeometry y="10" relative="1" as="geometry">
            <mxPoint as="offset" />
            <mxPoint x="464" y="459" as="sourcePoint" />
            <mxPoint x="514" y="459" as="targetPoint" />
          </mxGeometry>
        </mxCell>
        <mxCell id="nSL4FQGUEAR4KbrCE8Lp-18" value="" style="edgeStyle=orthogonalEdgeStyle;rounded=0;orthogonalLoop=1;jettySize=auto;html=1;labelBackgroundColor=none;fontColor=#000000;align=center;" edge="1" parent="WIyWlLk6GJQsqaUBKTNV-1" source="nSL4FQGUEAR4KbrCE8Lp-17" target="nSL4FQGUEAR4KbrCE8Lp-6">
          <mxGeometry relative="1" as="geometry" />
        </mxCell>
        <mxCell id="nSL4FQGUEAR4KbrCE8Lp-17" value="add name and bid&lt;br&gt;into a dictionary" style="rounded=1;whiteSpace=wrap;html=1;fontColor=#000000;" vertex="1" parent="WIyWlLk6GJQsqaUBKTNV-1">
          <mxGeometry x="260" y="290" width="120" height="50" as="geometry" />
        </mxCell>
        <mxCell id="nSL4FQGUEAR4KbrCE8Lp-20" style="edgeStyle=orthogonalEdgeStyle;rounded=0;orthogonalLoop=1;jettySize=auto;html=1;exitX=0.5;exitY=0;exitDx=0;exitDy=0;entryX=0;entryY=0.5;entryDx=0;entryDy=0;labelBackgroundColor=none;fontColor=#000000;align=center;" edge="1" parent="WIyWlLk6GJQsqaUBKTNV-1" source="nSL4FQGUEAR4KbrCE8Lp-19" target="nSL4FQGUEAR4KbrCE8Lp-4">
          <mxGeometry relative="1" as="geometry" />
        </mxCell>
        <mxCell id="nSL4FQGUEAR4KbrCE8Lp-19" value="clear the screen" style="rounded=1;whiteSpace=wrap;html=1;fontColor=#000000;" vertex="1" parent="WIyWlLk6GJQsqaUBKTNV-1">
          <mxGeometry x="110" y="297.5" width="120" height="35" as="geometry" />
        </mxCell>
      </root>
    </mxGraphModel>
  </diagram>
</mxfile>
